HIERARCHY
ROOT Hips
{
	OFFSET -0.001795 -0.223333 0.028219
	CHANNELS 6 Xposition Yposition Zposition Zrotation Yrotation Xrotation
	JOINT LeftUpLeg
	{
		OFFSET 0.069520 -0.091406 -0.006815
		CHANNELS 3 Zrotation Yrotation Xrotation
		JOINT LeftLeg
		{
			OFFSET 0.034277 -0.375199 -0.004496
			CHANNELS 3 Zrotation Yrotation Xrotation
			JOINT LeftFoot
			{
				OFFSET -0.013596 -0.397961 -0.043693
				CHANNELS 3 Zrotation Yrotation Xrotation
				JOINT LeftToe
				{
					OFFSET 0.026358 -0.055791 0.119288
					CHANNELS 3 Zrotation Yrotation Xrotation
					End Site
					{
						OFFSET 0.000000 0.000000 0.000000
					}
				}
			}
		}
	}
	JOINT RightUpLeg
	{
		OFFSET -0.067670 -0.090522 -0.004320
		CHANNELS 3 Zrotation Yrotation Xrotation
		JOINT RightLeg
		{
			OFFSET -0.038290 -0.382569 -0.008850
			CHANNELS 3 Zrotation Yrotation Xrotation
			JOINT RightFoot
			{
				OFFSET 0.015774 -0.398415 -0.042312
				CHANNELS 3 Zrotation Yrotation Xrotation
				JOINT RightToe
				{
					OFFSET -0.025372 -0.048144 0.123348
					CHANNELS 3 Zrotation Yrotation Xrotation
					End Site
					{
						OFFSET 0.000000 0.000000 0.000000
					}
				}
			}
		}
	}
	JOINT Spine
	{
		OFFSET -0.002533 0.108963 -0.026696
		CHANNELS 3 Zrotation Yrotation Xrotation
		JOINT Spine1
		{
			OFFSET 0.005487 0.135180 0.001092
			CHANNELS 3 Zrotation Yrotation Xrotation
			JOINT Spine2
			{
				OFFSET 0.001457 0.052922 0.025425
				CHANNELS 3 Zrotation Yrotation Xrotation
				JOINT Neck
				{
					OFFSET -0.002778 0.213870 -0.042857
					CHANNELS 3 Zrotation Yrotation Xrotation
					JOINT Head
					{
						OFFSET 0.005152 0.064970 0.051349
						CHANNELS 3 Zrotation Yrotation Xrotation
						End Site
						{
							OFFSET 0.000000 0.000000 0.000000
						}
					}
				}
				JOINT LeftShoulder
				{
					OFFSET 0.078845 0.121749 -0.034090
					CHANNELS 3 Zrotation Yrotation Xrotation
					JOINT LeftArm
					{
						OFFSET 0.090977 0.030469 -0.008868
						CHANNELS 3 Zrotation Yrotation Xrotation
						JOINT LeftForeArm
						{
							OFFSET 0.259612 -0.012772 -0.027456
							CHANNELS 3 Zrotation Yrotation Xrotation
							JOINT LeftHand
							{
								OFFSET 0.249234 0.008986 -0.001171
								CHANNELS 3 Zrotation Yrotation Xrotation
								End Site
								{
									OFFSET 0.000000 0.000000 0.000000
								}
							}
						}
					}
				}
				JOINT RightShoulder
				{
					OFFSET -0.081759 0.118833 -0.038615
					CHANNELS 3 Zrotation Yrotation Xrotation
					JOINT RightArm
					{
						OFFSET -0.096012 0.032551 -0.009143
						CHANNELS 3 Zrotation Yrotation Xrotation
						JOINT RightForeArm
						{
							OFFSET -0.253742 -0.013329 -0.021401
							CHANNELS 3 Zrotation Yrotation Xrotation
							JOINT RightHand
							{
								OFFSET -0.255298 0.007772 -0.005559
								CHANNELS 3 Zrotation Yrotation Xrotation
								End Site
								{
									OFFSET 0.000000 0.000000 0.000000
								}
							}
						}
					}
				}
			}
		}
	}
}
MOTION
Frames: 15
Frame Time: 0.050000
0.000000 0.966718 0.000000 -0.309070 -7.284430 3.183498 2.103494 0.198411 2.647359 -2.396227 0.489098 -10.613734 2.202858 8.610328 18.787244 0.000000 0.000000 0.000000 -2.918655 0.055354 1.144410 3.543667 -0.341076 -6.361480 3.331577 -3.883797 21.481790 0.000000 0.000000 0.000000 6.771354 -0.436443 3.371673 -5.610930 1.832446 -22.911546 -1.322272 7.961351 26.214617 11.250567 -3.848013 -29.040028 0.000000 0.000000 0.000000 -26.371096 -14.368593 6.287415 -46.064739 -6.067312 -4.972843 -10.901653 -21.356802 2.884627 0.000000 0.000000 0.000000 36.296008 1.524422 -0.013769 48.607171 7.381600 -4.459284 9.329209 22.606140 2.780107 0.000000 0.000000 0.000000
-0.000181 0.965097 0.000390 -0.307991 -7.498697 3.809546 2.528408 0.150897 2.211650 -3.128459 0.519716 -10.781201 2.236189 8.518460 18.184981 0.000000 0.000000 0.000000 -2.657177 0.132459 -0.111387 3.200950 -0.324086 -5.426560 2.966803 -4.270674 20.831787 0.000000 0.000000 0.000000 6.923188 -0.374978 2.568422 -5.596096 1.824523 -22.494634 -1.833962 7.143506 25.929952 12.252812 -4.580191 -28.866103 0.000000 0.000000 0.000000 -25.757481 -13.970776 6.383786 -46.725317 -6.591058 -4.952075 -10.223520 -21.158764 2.756157 0.000000 0.000000 0.000000 35.615159 1.857001 -0.272878 49.932735 6.019251 -4.860251 10.060484 24.324882 3.148276 0.000000 0.000000 0.000000
-0.000353 0.964305 0.000548 -0.014976 -7.418755 3.783548 2.873464 0.104281 1.690197 -3.903667 0.525977 -9.260442 1.551021 7.194121 16.483358 0.000000 0.000000 0.000000 -2.320737 0.105840 0.023879 2.741178 -0.310498 -5.807929 1.646372 -6.266268 20.594326 0.000000 0.000000 0.000000 7.010136 -0.401642 2.810246 -5.859285 1.883002 -23.335188 -1.518423 6.733307 26.872487 11.617811 -4.363945 -28.786857 0.000000 0.000000 0.000000 -25.678012 -14.163059 6.692737 -46.237929 -6.916642 -4.917066 -10.948953 -19.941185 2.714785 0.000000 0.000000 0.000000 35.739799 2.343551 -0.047538 49.647376 5.632438 -5.042615 9.358481 23.890744 2.937138 0.000000 0.000000 0.000000
-0.000580 0.964744 0.000659 0.050454 -8.322691 4.390874 2.914232 0.113163 1.796529 -3.872727 0.543955 -9.897357 1.231330 6.479727 16.058128 0.000000 0.000000 0.000000 -2.697060 0.165291 -0.438251 3.476531 -0.323567 -6.418871 1.584987 -6.633779 20.922520 0.000000 0.000000 0.000000 7.104549 -0.393067 2.593343 -5.545125 1.778598 -23.841371 -1.886686 7.189608 27.052227 12.208676 -4.591893 -29.471079 0.000000 0.000000 0.000000 -25.809905 -14.413835 6.947056 -46.208590 -6.335350 -5.153321 -11.271540 -20.403110 2.845251 0.000000 0.000000 0.000000 37.047700 2.297408 -0.259360 48.923110 5.282290 -5.106245 9.524293 23.230055 2.865740 0.000000 0.000000 0.000000
-0.000790 0.964141 0.000766 0.015708 -8.904959 4.135324 2.871827 0.144014 2.116251 -3.357677 0.511806 -8.979366 0.766056 5.269393 14.160312 0.000000 0.000000 0.000000 -2.648795 0.150490 -0.236733 3.413225 -0.314719 -6.651033 1.782503 -6.582897 21.363138 0.000000 0.000000 0.000000 7.013666 -0.412075 2.885144 -5.102704 1.665999 -23.003062 -2.041134 6.758954 26.405887 11.806407 -4.693538 -28.197166 0.000000 0.000000 0.000000 -26.191459 -14.017025 6.980396 -46.304500 -6.190257 -5.223746 -11.231256 -20.261101 2.828141 0.000000 0.000000 0.000000 36.558758 2.732778 -0.354771 48.836524 4.997303 -5.002010 9.598313 22.650592 2.750680 0.000000 0.000000 0.000000
-0.001045 0.964489 0.000819 0.223695 -9.209929 3.777552 2.688642 0.196143 2.679875 -3.174182 0.504539 -8.929892 0.392742 4.539352 13.751381 0.000000 0.000000 0.000000 -2.848170 0.139970 0.076703 3.524081 -0.313745 -6.622551 1.625578 -6.846913 21.270341 0.000000 0.000000 0.000000 6.787638 -0.472927 3.677594 -4.864559 1.598874 -23.547630 -2.122017 6.638812 26.702446 11.749005 -4.644890 -28.637570 0.000000 0.000000 0.000000 -26.322060 -14.079107 7.163618 -46.150585 -5.979403 -5.347399 -11.563916 -20.683267 2.957087 0.000000 0.000000 0.000000 36.716548 2.843527 -0.442040 48.698104 4.967157 -4.980562 9.123084 22.435160 2.621803 0.000000 0.000000 0.000000
-0.001320 0.964409 0.000760 0.183954 -9.187211 3.593539 2.702155 0.202902 2.754543 -3.060556 0.491705 -8.600766 0.367355 4.426177 13.419540 0.000000 0.000000 0.000000 -2.653916 0.104888 0.415643 3.606806 -0.314837 -6.974610 1.057016 -7.777281 21.479960 0.000000 0.000000 0.000000 7.002588 -0.520624 4.113972 -4.833358 1.592898 -23.370979 -2.233067 6.357219 26.675725 11.786981 -4.724479 -28.540164 0.000000 0.000000 0.000000 -26.641655 -13.863807 7.143265 -45.991042 -5.913301 -5.379619 -11.584692 -21.217061 3.050283 0.000000 0.000000 0.000000 36.476487 2.798317 -0.593302 48.898910 4.774907 -5.030718 8.987284 22.465582 2.594750 0.000000 0.000000 0.000000
-0.001621 0.964239 0.000694 0.110249 -9.468326 3.463474 2.688927 0.213153 2.841580 -2.935522 0.488918 -8.674209 0.594968 4.854924 13.835956 0.000000 0.000000 0.000000 -2.596846 0.090019 0.599343 3.844392 -0.314037 -7.173288 0.832823 -8.202972 21.608004 0.000000 0.000000 0.000000 7.122912 -0.553942 4.438595 -4.756471 1.568155 -23.254318 -2.387160 6.478822 26.435225 11.772310 -4.761748 -28.253932 0.000000 0.000000 0.000000 -26.628082 -13.925697 7.179534 -45.818844 -5.648711 -5.435579 -12.000933 -21.915751 3.236979 0.000000 0.000000 0.000000 36.493106 2.779746 -0.644310 48.800852 4.679386 -5.030949 8.866316 22.389557 2.556691 0.000000 0.000000 0.000000
-0.001976 0.964058 0.000685 0.066982 -9.578019 3.425336 2.653407 0.223101 2.941990 -2.900942 0.491172 -8.818720 0.852143 5.282112 13.948542 0.000000 0.000000 0.000000 -2.654591 0.092604 0.618311 4.062779 -0.315122 -7.247699 0.849233 -8.266167 21.846799 0.000000 0.000000 0.000000 7.196093 -0.580036 4.683958 -4.723828 1.557177 -23.477757 -2.389505 6.590119 26.415567 11.674503 -4.702744 -28.227155 0.000000 0.000000 0.000000 -26.699137 -13.759338 7.060479 -45.668461 -5.818341 -5.352745 -11.805162 -22.306073 3.260510 0.000000 0.000000 0.000000 36.275899 2.410945 -0.891664 48.478361 4.574223 -5.047933 9.315899 22.312870 2.626670 0.000000 0.000000 0.000000
-0.002352 0.964012 0.000784 0.075771 -9.840879 3.190051 2.674370 0.236306 3.065600 -2.904928 0.490681 -8.667932 0.944763 5.452217 14.204370 0.000000 0.000000 0.000000 -2.599813 0.071949 0.885911 4.213150 -0.312271 -7.343018 0.506822 -8.811105 21.803672 0.000000 0.000000 0.000000 7.264478 -0.616420 5.087577 -4.629355 1.529110 -23.832337 -2.414252 7.050361 26.586634 11.493845 -4.605542 -27.989130 0.000000 0.000000 0.000000 -26.521943 -13.801115 6.970088 -45.664912 -5.732494 -5.372345 -11.891774 -23.104127 3.400343 0.000000 0.000000 0.000000 36.215374 2.187115 -0.906250 47.993134 4.394427 -5.136477 9.461783 22.680242 2.709609 0.000000 0.000000 0.000000
-0.002830 0.964176 0.001019 0.176090 -9.767323 2.917098 2.575206 0.245444 3.132497 -2.833185 0.484720 -8.602487 0.940954 5.590762 14.848614 0.000000 0.000000 0.000000 -2.575837 0.044715 1.247814 4.355249 -0.315170 -7.375349 -0.074868 -9.589553 21.540193 0.000000 0.000000 0.000000 7.203489 -0.625930 5.276344 -4.813200 1.576614 -23.992480 -2.342108 7.150766 26.770684 11.439562 -4.560404 -27.991371 0.000000 0.000000 0.000000 -26.480050 -13.785984 6.910451 -45.617947 -5.852293 -5.330101 -11.620412 -23.877549 3.468343 0.000000 0.000000 0.000000 36.055330 2.005758 -0.944369 47.818475 4.445961 -5.144202 9.278871 22.769878 2.693879 0.000000 0.000000 0.000000
-0.003390 0.964473 0.001418 0.294530 -9.881107 2.639889 2.563474 0.234671 2.962043 -2.776883 0.473198 -8.177288 0.786033 5.514947 15.748474 0.000000 0.000000 0.000000 -2.469950 0.025640 1.427934 4.403773 -0.315497 -7.234173 -0.813923 -10.691319 21.477001 0.000000 0.000000 0.000000 6.977639 -0.635400 5.568637 -4.798187 1.570211 -24.256018 -2.165681 7.531226 26.955202 11.460439 -4.601944 -27.638319 0.000000 0.000000 0.000000 -26.689075 -13.847085 6.857520 -45.333071 -5.794697 -5.313328 -11.546262 -24.419351 3.530283 0.000000 0.000000 0.000000 36.444961 1.911051 -0.883968 47.198414 4.396421 -5.176499 9.202199 23.281844 2.757782 0.000000 0.000000 0.000000
-0.004173 0.964798 0.001906 0.344702 -9.994733 2.455807 2.618318 0.223900 2.816240 -2.700264 0.460049 -7.756105 0.605263 5.334718 16.315381 0.000000 0.000000 0.000000 -2.483142 0.016138 1.584852 4.633145 -0.317306 -7.184033 -1.198152 -11.291151 21.551448 0.000000 0.000000 0.000000 6.799295 -0.628418 5.644665 -4.698745 1.544626 -24.180072 -2.133084 7.912376 26.786991 11.612631 -4.627629 -27.659592 0.000000 0.000000 0.000000 -26.578385 -13.851736 6.722588 -45.244600 -5.324775 -5.421644 -11.630968 -25.420080 3.698265 0.000000 0.000000 0.000000 36.290864 1.677669 -0.889150 47.158728 4.264954 -5.258319 9.165573 23.697226 2.819340 0.000000 0.000000 0.000000
-0.005032 0.964988 0.002492 0.283658 -10.340024 2.398702 2.491429 0.206311 2.537132 -2.514401 0.441249 -7.368566 1.217143 6.351855 16.986300 0.000000 0.000000 0.000000 -2.251996 -0.002658 1.664312 4.796572 -0.314688 -7.092566 -1.726372 -12.032160 21.177296 0.000000 0.000000 0.000000 6.724591 -0.617204 5.592725 -4.751366 1.550921 -24.296094 -1.869391 8.525542 26.669052 11.800274 -4.747061 -27.217446 0.000000 0.000000 0.000000 -26.436862 -13.995950 6.650886 -45.146008 -5.022879 -5.462702 -12.108726 -26.248166 3.927722 0.000000 0.000000 0.000000 36.234978 1.555407 -0.784658 47.173564 4.196201 -5.332294 9.154449 24.359423 2.924481 0.000000 0.000000 0.000000
-0.005860 0.965125 0.003028 0.216581 -10.730541 2.275084 2.359983 0.195140 2.335026 -2.331295 0.423845 -7.076438 1.922599 7.515856 17.905617 0.000000 0.000000 0.000000 -2.185823 -0.007165 1.695840 4.866907 -0.316104 -6.638938 -1.507728 -11.610498 20.504228 0.000000 0.000000 0.000000 6.565605 -0.600231 5.540872 -4.765624 1.546472 -24.433319 -1.382701 9.455493 26.814063 11.871876 -4.699343 -27.146074 0.000000 0.000000 0.000000 -26.281272 -14.274523 6.573040 -45.016966 -4.685552 -5.507406 -12.040397 -27.280566 4.057056 0.000000 0.000000 0.000000 36.493642 1.443220 -0.530215 46.884644 4.266678 -5.401570 8.888991 25.136977 3.008322 0.000000 0.000000 0.000000
